<?xml version="1.0" encoding="UTF-8"?>
<svg width="84px" height="98px" viewBox="0 0 84 98" version="1.1" xmlns="http://www.w3.org/2000/svg" xmlns:xlink="http://www.w3.org/1999/xlink">
    <!-- Generator: Sketch 59.1 (86144) - https://sketch.com -->
    <title>icon-home</title>
    <desc>Created with Sketch.</desc>
    <g id="Page-1" stroke="none" stroke-width="1" fill="none" fill-rule="evenodd">
        <g id="icon-home" transform="translate(0.000000, -1.000000)" fill="#FFFFFF" fill-rule="nonzero">
            <path d="M82.81,18 C82.81,16.6192881 81.6907119,15.5 80.31,15.5 C65.06,15.5 53.44,11.11 43.75,1.68 C42.7791225,0.733659196 41.2308775,0.733659196 40.26,1.68 C30.56,11.11 18.95,15.5 3.7,15.5 C3.03522784,15.4973409 2.39677102,15.7595586 1.92576504,16.2286881 C1.45475905,16.6978176 1.18999468,17.3352225 1.19,18 C1.19,20.48 1.19,23 1.09,25.74 C0.62,50.59 3.44169138e-15,84.58 41.18,98.86 C41.7111151,99.0444076 42.2888849,99.0444076 42.82,98.86 C84,84.58 83.38,50.59 82.91,25.77 C82.85,23.06 82.81,20.51 82.81,18 Z M42,93.85 C5,80.6 5.63,50.27 6.1,25.85 C6.1,24 6.17,22.22 6.19,20.48 C20.74,20.04 32.19,15.69 42.01,6.91 C51.79,15.69 63.28,20.04 77.83,20.48 C77.83,22.22 77.88,24 77.92,25.85 C78.37,50.27 79,80.6 42,93.85 Z" id="Shape"></path>
            <path d="M43.67,24.56 C42.7184522,23.7012037 41.2715478,23.7012037 40.32,24.56 L17.22,45.41 C16.5329597,46.0020821 16.2204732,46.9198224 16.4034443,47.8081394 C16.5864154,48.6964564 17.2361424,49.4160048 18.1012404,49.6883852 C18.9663384,49.9607655 19.9111042,49.7432511 20.57,49.12 L22.37,47.5 L22.37,69.72 C22.37,71.1007119 23.4892881,72.22 24.87,72.22 L59.13,72.22 C60.5107119,72.22 61.63,71.1007119 61.63,69.72 L61.63,47.5 L63.43,49.12 C64.0888958,49.7432511 65.0336616,49.9607655 65.8987596,49.6883852 C66.7638576,49.4160048 67.4135846,48.6964564 67.5965557,47.8081394 C67.7795268,46.9198224 67.4670403,46.0020821 66.78,45.41 L43.67,24.56 Z M45.36,67.22 L38.63,67.22 L38.63,57.82 L45.37,57.82 L45.36,67.22 Z M56.62,67.22 L50.37,67.22 L50.37,55.32 C50.37,53.9392881 49.2507119,52.82 47.87,52.82 L36.13,52.82 C34.7492881,52.82 33.63,53.9392881 33.63,55.32 L33.63,67.22 L27.37,67.22 L27.37,43 L42,29.79 L56.63,43 L56.62,67.22 Z" id="Shape"></path>
        </g>
    </g>
</svg>