<svg xmlns="http://www.w3.org/2000/svg" viewBox="0 0 546 243"><defs><style>.a{fill:#0033a1;}</style></defs><path class="a" d="M544.4,231.86H422.72V145l19.18.17a.67.67,0,0,0,.61-.31.75.75,0,0,0,.11-.68L397.36,10.05a.75.75,0,0,0-.85-.49L269.06,34.09a.75.75,0,0,0-.6.84l.2,1.39a.75.75,0,0,0,.82.64L389.28,25.1,377.35,46,372.5,34.42a.73.73,0,0,0-.64-.45.75.75,0,0,0-.7.37l-45.8,78.4a.7.7,0,0,0-.11.38v.19l-90.13,8V74.26a.76.76,0,0,0-.24-.55.8.8,0,0,0-.57-.2l-19.24,1.43a.75.75,0,0,0-.69.75v41.67l-19.28,1.42V79a.71.71,0,0,0-.26-.56.7.7,0,0,0-.59-.18l-10.57,1.38a.75.75,0,0,0-.66.74v39.85l-16.62,1.29V83.23a.74.74,0,0,0-.84-.74l-7.78,1a.75.75,0,0,0-.66.74V234a.75.75,0,0,0,.75.75h0l7.79,0a.74.74,0,0,0,.74-.75V166.8l14.23-.78v68a.75.75,0,0,0,.75.75h9.78a.74.74,0,0,0,.75-.75V165.16l22.6-.57V234a.75.75,0,0,0,.75.75H227a.75.75,0,0,0,.75-.75V124.94l4.46-.4V234a.74.74,0,0,0,.75.75H262.5a.74.74,0,0,0,.75-.75v-70.9l36.55-.28V234a.75.75,0,0,0,.75.75h24.7v4.89l-210.9-1.33v-3.56h11.31a.75.75,0,0,0,.75-.75V172l16.38-.5V234a.75.75,0,0,0,.75.75h6.14a.75.75,0,0,0,.75-.75V72.38L185.6,22.81l38,39.4a.86.86,0,0,0,.33.2L283.7,79.68a.73.73,0,0,0,.8-.27.74.74,0,0,0,0-.85l-25.84-41a.74.74,0,0,0-.34-.29L171.42.47a.76.76,0,0,0-.9.26L110.91,84.54a.74.74,0,0,0-.06.76.73.73,0,0,0,.64.42l16.2.78L75.23,137.1a.75.75,0,0,0,.55,1.29l35.66-1.54v95H.75a.76.76,0,0,0-.75.75V234a.75.75,0,0,0,.75.75H111.44v5.7a.75.75,0,0,0,.74.75l215.23,1.37h0a.75.75,0,0,0,.75-.75v-7.07h27.21a.75.75,0,0,0,.75-.75v-73.3l15.42,3V234a.75.75,0,0,0,.75.75h7.79a.75.75,0,0,0,.75-.75V165.49l11.84,2.24V234a.75.75,0,0,0,.22.53.79.79,0,0,0,.53.22l22.49-.22a.74.74,0,0,0,.74-.75V140.13a.72.72,0,0,0-.06-.29L378.76,49.4l15.12-26.49a.76.76,0,0,0,0-.78.74.74,0,0,0-.7-.33L300.8,30.94l94.41-18.17,43.68,129.42L420.57,142a.75.75,0,0,0-.54.21.77.77,0,0,0-.22.54V234a.75.75,0,0,0,.75.75H544.4a.75.75,0,0,0,.75-.75v-1.41A.76.76,0,0,0,544.4,231.86ZM261.09,160.23a.75.75,0,0,0-.74.75v70.88H235.12V124.28l90.13-8V231.86H302.71v-71.2a.75.75,0,0,0-.22-.53.62.62,0,0,0-.54-.22Zm-35.57-38a.76.76,0,0,0-.68.75V231.86h-7.42V162.37a.72.72,0,0,0-.23-.53.75.75,0,0,0-.54-.22l-26.92.68a.76.76,0,0,0-.73.75v68.81h-5.46V163.74a.74.74,0,0,0-.23-.54.77.77,0,0,0-.56-.21l-18.55,1a.75.75,0,0,0-.7.75v67.1H160V86.11l3.47-.44v38.18a.74.74,0,0,0,.24.55.73.73,0,0,0,.56.19L185.24,123a.75.75,0,0,0,.69-.75v-40l6.26-.81V121.1a.76.76,0,0,0,.24.55.74.74,0,0,0,.57.2l23.59-1.73a.75.75,0,0,0,.69-.75V77.69l14.93-1.1v45ZM256.6,39.65l22.46,35.66L225.32,59.77,185.89,18.92a.76.76,0,0,0-.6-.23.74.74,0,0,0-.55.32L147.66,71.25a.77.77,0,0,0-.14.44V231.86H145.7V169.32a.74.74,0,0,0-.23-.54.7.7,0,0,0-.54-.21l-20.7.63a.75.75,0,0,0-.73.75v61.91h-9.15V134.6a.76.76,0,0,0-.23-.54.81.81,0,0,0-.56-.21l-32.21,1.39,52-50.12a.78.78,0,0,0,.18-.81.75.75,0,0,0-.67-.48L115.57,83,171.89,3.83ZM378.19,162.31a.76.76,0,0,0-.27.58v69h-3.47V162a.75.75,0,0,0-.6-.73l-19.75-3.86a.74.74,0,0,0-.62.15.78.78,0,0,0-.27.58v73.76h-25V116l12.89-1.15a.76.76,0,0,0,.58-.38l35.31-61.86,36.8,88v91.12l-18.16.17V166a.76.76,0,0,0-.62-.74l-16.15-3.06A.77.77,0,0,0,378.19,162.31ZM328.56,113l42.93-73.47,4,9.66L339.67,112Z"/></svg>